<?xml version="1.0" encoding="UTF-8" standalone="no"?>
<svg 
   width="236.87999pt"
   height="139.919998pt"
   viewBox="0 0 236.87999 139.919998"
   version="1.1"
   id="svg42"
   xmlns="http://www.w3.org/2000/svg"
   xmlns:svg="http://www.w3.org/2000/svg" content="%3Cmxfile%20host%3D%22app.diagrams.net%22%20modified%3D%222023-07-02T23%3A33%3A21.233Z%22%20agent%3D%22Mozilla%2F5.0%20(Windows%20NT%2010.0%3B%20Win64%3B%20x64)%20AppleWebKit%2F537.36%20(KHTML%2C%20like%20Gecko)%20Chrome%2F114.0.0.0%20Safari%2F537.36%20Edg%2F114.0.1823.58%22%20version%3D%2221.5.0%22%20etag%3D%22qVDW5tw6XFbrfnQ91iOE%22%20type%3D%22google%22%3E%20%20%20%3Cdiagram%20name%3D%22Page-1%22%20id%3D%22FoONtr9JRHOf6xenMxV1%22%3E%20%20%20%20%20%3CmxGraphModel%20dx%3D%22833%22%20dy%3D%22248%22%20grid%3D%221%22%20gridSize%3D%2210%22%20guides%3D%221%22%20tooltips%3D%221%22%20connect%3D%221%22%20arrows%3D%221%22%20fold%3D%221%22%20page%3D%221%22%20pageScale%3D%221%22%20pageWidth%3D%22413%22%20pageHeight%3D%22583%22%20math%3D%221%22%20shadow%3D%220%22%3E%20%20%20%20%20%20%20%3Croot%3E%20%20%20%20%20%20%20%20%20%3CmxCell%20id%3D%220%22%20%2F%3E%20%20%20%20%20%20%20%20%20%3CmxCell%20id%3D%221%22%20parent%3D%220%22%20%2F%3E%20%20%20%20%20%20%20%20%20%3CmxCell%20id%3D%222%22%20style%3D%22edgeStyle%3DorthogonalEdgeStyle%3Brounded%3D0%3BorthogonalLoop%3D1%3BjettySize%3Dauto%3Bhtml%3D1%3BexitX%3D1%3BexitY%3D0.5%3BexitDx%3D0%3BexitDy%3D0%3BexitPerimeter%3D0%3BentryX%3D0%3BentryY%3D0.5%3BentryDx%3D0%3BentryDy%3D0%3BentryPerimeter%3D0%3BendArrow%3Dnone%3BendFill%3D0%3B%22%20edge%3D%221%22%20source%3D%223%22%20target%3D%225%22%20parent%3D%221%22%3E%20%20%20%20%20%20%20%20%20%20%20%3CmxGeometry%20relative%3D%221%22%20as%3D%22geometry%22%20%2F%3E%20%20%20%20%20%20%20%20%20%3C%2FmxCell%3E%20%20%20%20%20%20%20%20%20%3CmxCell%20id%3D%223%22%20value%3D%22%22%20style%3D%22pointerEvents%3D1%3BverticalLabelPosition%3Dbottom%3Bshadow%3D0%3Bdashed%3D0%3Balign%3Dcenter%3Bhtml%3D1%3BverticalAlign%3Dtop%3Bshape%3Dmxgraph.electrical.resistors.resistor_1%3B%22%20vertex%3D%221%22%20parent%3D%221%22%3E%20%20%20%20%20%20%20%20%20%20%20%3CmxGeometry%20x%3D%22100%22%20y%3D%22420%22%20width%3D%22100%22%20height%3D%2220%22%20as%3D%22geometry%22%20%2F%3E%20%20%20%20%20%20%20%20%20%3C%2FmxCell%3E%20%20%20%20%20%20%20%20%20%3CmxCell%20id%3D%224%22%20style%3D%22edgeStyle%3DorthogonalEdgeStyle%3Brounded%3D0%3BorthogonalLoop%3D1%3BjettySize%3Dauto%3Bhtml%3D1%3BexitX%3D1%3BexitY%3D0.5%3BexitDx%3D0%3BexitDy%3D0%3BexitPerimeter%3D0%3BentryX%3D0%3BentryY%3D0.5%3BentryDx%3D0%3BentryDy%3D0%3BentryPerimeter%3D0%3BendArrow%3Dnone%3BendFill%3D0%3B%22%20edge%3D%221%22%20source%3D%225%22%20target%3D%227%22%20parent%3D%221%22%3E%20%20%20%20%20%20%20%20%20%20%20%3CmxGeometry%20relative%3D%221%22%20as%3D%22geometry%22%20%2F%3E%20%20%20%20%20%20%20%20%20%3C%2FmxCell%3E%20%20%20%20%20%20%20%20%20%3CmxCell%20id%3D%225%22%20value%3D%22%22%20style%3D%22pointerEvents%3D1%3BverticalLabelPosition%3Dbottom%3Bshadow%3D0%3Bdashed%3D0%3Balign%3Dcenter%3Bhtml%3D1%3BverticalAlign%3Dtop%3Bshape%3Dmxgraph.electrical.resistors.resistor_1%3Bdirection%3Dsouth%3B%22%20vertex%3D%221%22%20parent%3D%221%22%3E%20%20%20%20%20%20%20%20%20%20%20%3CmxGeometry%20x%3D%22215%22%20y%3D%22450%22%20width%3D%2220%22%20height%3D%22100%22%20as%3D%22geometry%22%20%2F%3E%20%20%20%20%20%20%20%20%20%3C%2FmxCell%3E%20%20%20%20%20%20%20%20%20%3CmxCell%20id%3D%226%22%20style%3D%22edgeStyle%3DorthogonalEdgeStyle%3Brounded%3D0%3BorthogonalLoop%3D1%3BjettySize%3Dauto%3Bhtml%3D1%3BexitX%3D1%3BexitY%3D0.5%3BexitDx%3D0%3BexitDy%3D0%3BexitPerimeter%3D0%3BentryX%3D0%3BentryY%3D0.5%3BentryDx%3D0%3BentryDy%3D0%3BentryPerimeter%3D0%3BendArrow%3Dopen%3BendFill%3D0%3B%22%20edge%3D%221%22%20source%3D%227%22%20target%3D%223%22%20parent%3D%221%22%3E%20%20%20%20%20%20%20%20%20%20%20%3CmxGeometry%20relative%3D%221%22%20as%3D%22geometry%22%20%2F%3E%20%20%20%20%20%20%20%20%20%3C%2FmxCell%3E%20%20%20%20%20%20%20%20%20%3CmxCell%20id%3D%227%22%20value%3D%22%22%20style%3D%22pointerEvents%3D1%3BverticalLabelPosition%3Dbottom%3Bshadow%3D0%3Bdashed%3D0%3Balign%3Dcenter%3Bhtml%3D1%3BverticalAlign%3Dtop%3Bshape%3Dmxgraph.electrical.signal_sources.source%3Baspect%3Dfixed%3Bpoints%3D%5B%5B0.5%2C0%2C0%5D%2C%5B1%2C0.5%2C0%5D%2C%5B0.5%2C1%2C0%5D%2C%5B0%2C0.5%2C0%5D%5D%3BelSignalType%3Dac%3Bdirection%3Dnorth%3B%22%20vertex%3D%221%22%20parent%3D%221%22%3E%20%20%20%20%20%20%20%20%20%20%20%3CmxGeometry%20x%3D%2240%22%20y%3D%22470%22%20width%3D%2260%22%20height%3D%2260%22%20as%3D%22geometry%22%20%2F%3E%20%20%20%20%20%20%20%20%20%3C%2FmxCell%3E%20%20%20%20%20%20%20%20%20%3CmxCell%20id%3D%228%22%20value%3D%22%24%24V_%7BOC%7D%24%24%22%20style%3D%22text%3Bhtml%3D1%3Balign%3Dcenter%3BverticalAlign%3Dmiddle%3Bresizable%3D0%3Bpoints%3D%5B%5D%3Bautosize%3D1%3BstrokeColor%3Dnone%3BfillColor%3Dnone%3B%22%20vertex%3D%221%22%20parent%3D%221%22%3E%20%20%20%20%20%20%20%20%20%20%20%3CmxGeometry%20x%3D%22-25%22%20y%3D%22485%22%20width%3D%2290%22%20height%3D%2230%22%20as%3D%22geometry%22%20%2F%3E%20%20%20%20%20%20%20%20%20%3C%2FmxCell%3E%20%20%20%20%20%20%20%20%20%3CmxCell%20id%3D%229%22%20value%3D%22%24%24R_A%24%24%22%20style%3D%22text%3Bhtml%3D1%3Balign%3Dcenter%3BverticalAlign%3Dmiddle%3Bresizable%3D0%3Bpoints%3D%5B%5D%3Bautosize%3D1%3BstrokeColor%3Dnone%3BfillColor%3Dnone%3B%22%20vertex%3D%221%22%20parent%3D%221%22%3E%20%20%20%20%20%20%20%20%20%20%20%3CmxGeometry%20x%3D%22115%22%20y%3D%22388%22%20width%3D%2270%22%20height%3D%2230%22%20as%3D%22geometry%22%20%2F%3E%20%20%20%20%20%20%20%20%20%3C%2FmxCell%3E%20%20%20%20%20%20%20%20%20%3CmxCell%20id%3D%2210%22%20value%3D%22%24%24R_L%24%24%22%20style%3D%22text%3Bhtml%3D1%3Balign%3Dcenter%3BverticalAlign%3Dmiddle%3Bresizable%3D0%3Bpoints%3D%5B%5D%3Bautosize%3D1%3BstrokeColor%3Dnone%3BfillColor%3Dnone%3B%22%20vertex%3D%221%22%20parent%3D%221%22%3E%20%20%20%20%20%20%20%20%20%20%20%3CmxGeometry%20x%3D%22220%22%20y%3D%22485%22%20width%3D%2270%22%20height%3D%2230%22%20as%3D%22geometry%22%20%2F%3E%20%20%20%20%20%20%20%20%20%3C%2FmxCell%3E%20%20%20%20%20%20%20%20%20%3CmxCell%20id%3D%2211%22%20value%3D%22%24%24I_%7BRX%7D%24%24%22%20style%3D%22text%3Bhtml%3D1%3Balign%3Dcenter%3BverticalAlign%3Dmiddle%3Bresizable%3D0%3Bpoints%3D%5B%5D%3Bautosize%3D1%3BstrokeColor%3Dnone%3BfillColor%3Dnone%3B%22%20vertex%3D%221%22%20parent%3D%221%22%3E%20%20%20%20%20%20%20%20%20%20%20%3CmxGeometry%20x%3D%2250%22%20y%3D%22398%22%20width%3D%2280%22%20height%3D%2230%22%20as%3D%22geometry%22%20%2F%3E%20%20%20%20%20%20%20%20%20%3C%2FmxCell%3E%20%20%20%20%20%20%20%3C%2Froot%3E%20%20%20%20%20%3C%2FmxGraphModel%3E%20%20%20%3C%2Fdiagram%3E%20%3C%2Fmxfile%3E%20">
  <defs
     id="defs46" />
  <path
     fill="none"
     stroke-width="1"
     stroke-linecap="butt"
     stroke-linejoin="miter"
     stroke="rgb(0%, 0%, 0%)"
     stroke-opacity="1"
     stroke-miterlimit="10"
     d="M 225.000009 42.000002 L 250.00001 42.000002 L 250.00001 62.000003 "
     transform="matrix(0.75, 0, 0, 0.75, 0.375, 0.375)"
     id="path2" />
  <path
     fill-rule="nonzero"
     fill="rgb(100%, 100%, 100%)"
     fill-opacity="1"
     stroke-width="1"
     stroke-linecap="butt"
     stroke-linejoin="miter"
     stroke="rgb(0%, 0%, 0%)"
     stroke-opacity="1"
     stroke-miterlimit="4"
     d="M 143.000006 32.000001 L 207.000009 32.000001 L 207.000009 52.000002 L 143.000006 52.000002 Z M 143.000006 32.000001 "
     transform="matrix(0.75, 0, 0, 0.75, 0.375, 0.375)"
     id="path4" />
  <path
     fill="none"
     stroke-width="1"
     stroke-linecap="butt"
     stroke-linejoin="miter"
     stroke="rgb(0%, 0%, 0%)"
     stroke-opacity="1"
     stroke-miterlimit="10"
     d="M 125.000005 42.000002 L 143.000006 42.000002 M 207.000009 42.000002 L 225.000009 42.000002 "
     transform="matrix(0.75, 0, 0, 0.75, 0.375, 0.375)"
     id="path6" />
  <path
     fill="none"
     stroke-width="1"
     stroke-linecap="butt"
     stroke-linejoin="miter"
     stroke="rgb(0%, 0%, 0%)"
     stroke-opacity="1"
     stroke-miterlimit="10"
     d="M 250.00001 162.000007 L 250.00001 182.000008 L 95.000004 182.000008 L 95.000004 142.000006 "
     transform="matrix(0.75, 0, 0, 0.75, 0.375, 0.375)"
     id="path8" />
  <path
     fill-rule="nonzero"
     fill="rgb(100%, 100%, 100%)"
     fill-opacity="1"
     stroke-width="1"
     stroke-linecap="butt"
     stroke-linejoin="miter"
     stroke="rgb(0%, 0%, 0%)"
     stroke-opacity="1"
     stroke-miterlimit="4"
     d="M 218.000003 101.999989 L 282.000006 101.999989 L 282.000006 121.99999 L 218.000003 121.99999 Z M 218.000003 101.999989 "
     transform="matrix(0, 0.75, -0.75, 0, 271.874989, -103.124996)"
     id="path10" />
  <path
     fill="none"
     stroke-width="1"
     stroke-linecap="butt"
     stroke-linejoin="miter"
     stroke="rgb(0%, 0%, 0%)"
     stroke-opacity="1"
     stroke-miterlimit="10"
     d="M 200.000003 111.99999 L 218.000003 111.99999 M 282.000006 111.99999 L 300.000007 111.99999 "
     transform="matrix(0, 0.75, -0.75, 0, 271.874989, -103.124996)"
     id="path12" />
  <path
     fill="none"
     stroke-width="1"
     stroke-linecap="butt"
     stroke-linejoin="miter"
     stroke="rgb(0%, 0%, 0%)"
     stroke-opacity="1"
     stroke-miterlimit="10"
     d="M 95.000004 82.000003 L 95.000004 42.000002 L 122.760422 42.000002 "
     transform="matrix(0.75, 0, 0, 0.75, 0.375, 0.375)"
     id="path14" />
  <path
     fill="none"
     stroke-width="1"
     stroke-linecap="butt"
     stroke-linejoin="miter"
     stroke="rgb(0%, 0%, 0%)"
     stroke-opacity="1"
     stroke-miterlimit="10"
     d="M 116.880213 45.500002 L 123.880214 42.000002 L 116.880213 38.500002 "
     transform="matrix(0.75, 0, 0, 0.75, 0.375, 0.375)"
     id="path16" />
  <path
     fill-rule="nonzero"
     fill="rgb(100%, 100%, 100%)"
     fill-opacity="1"
     stroke-width="1"
     stroke-linecap="butt"
     stroke-linejoin="miter"
     stroke="rgb(0%, 0%, 0%)"
     stroke-opacity="1"
     stroke-miterlimit="4"
     d="M 124.999997 112.000004 C 124.999997 112.984379 124.953122 113.963546 124.854163 114.942712 C 124.760413 115.916671 124.61458 116.890629 124.421872 117.854171 C 124.234372 118.817713 123.994788 119.770838 123.70833 120.708338 C 123.421871 121.651046 123.093746 122.572921 122.718746 123.479171 C 122.338538 124.390629 121.921871 125.276046 121.45833 126.14063 C 120.994788 127.010421 120.48958 127.848963 119.942705 128.666671 C 119.39583 129.48438 118.812496 130.270838 118.192705 131.031255 C 117.567705 131.791671 116.906246 132.520838 116.213538 133.213547 C 115.52083 133.906255 114.791663 134.567713 114.031246 135.192713 C 113.270829 135.812505 112.484371 136.395838 111.666663 136.942713 C 110.848954 137.489588 110.010413 137.994797 109.140621 138.458338 C 108.276038 138.92188 107.390621 139.338547 106.479162 139.718755 C 105.572912 140.093755 104.651037 140.42188 103.708329 140.708339 C 102.770829 140.994797 101.817704 141.23438 100.854162 141.42188 C 99.890621 141.614589 98.916662 141.760422 97.942704 141.854172 C 96.963537 141.95313 95.98437 142.000005 94.999995 142.000005 C 94.01562 142.000005 93.036454 141.95313 92.057287 141.854172 C 91.083328 141.760422 90.10937 141.614589 89.145828 141.42188 C 88.182287 141.23438 87.229162 140.994797 86.291662 140.708339 C 85.348953 140.42188 84.427078 140.093755 83.520828 139.718755 C 82.60937 139.338547 81.723953 138.92188 80.85937 138.458338 C 79.989578 137.994797 79.151036 137.489588 78.333328 136.942713 C 77.51562 136.395838 76.729161 135.812505 75.968745 135.192713 C 75.208328 134.567713 74.479161 133.906255 73.786453 133.213547 C 73.093744 132.520838 72.432286 131.791671 71.807286 131.031255 C 71.187494 130.270838 70.604161 129.48438 70.057286 128.666671 C 69.510411 127.848963 69.005203 127.010421 68.541661 126.14063 C 68.078119 125.276046 67.661453 124.390629 67.281244 123.479171 C 66.906244 122.572921 66.578119 121.651046 66.291661 120.708338 C 66.005202 119.770838 65.765619 118.817713 65.578119 117.854171 C 65.385411 116.890629 65.239577 115.916671 65.145827 114.942712 C 65.046869 113.963546 64.999994 112.984379 64.999994 112.000004 C 64.999994 111.015629 65.046869 110.036462 65.145827 109.057296 C 65.239577 108.083337 65.385411 107.109379 65.578119 106.145837 C 65.765619 105.182295 66.005202 104.22917 66.291661 103.29167 C 66.578119 102.348962 66.906244 101.427087 67.281244 100.520837 C 67.661453 99.609378 68.078119 98.723962 68.541661 97.859378 C 69.005203 96.989587 69.510411 96.151045 70.057286 95.333337 C 70.604161 94.515628 71.187494 93.72917 71.807286 92.968753 C 72.432286 92.208336 73.093744 91.47917 73.786453 90.786461 C 74.479161 90.093753 75.208328 89.432295 75.968745 88.807295 C 76.729161 88.187503 77.51562 87.60417 78.333328 87.057295 C 79.151036 86.51042 79.989578 86.005211 80.85937 85.54167 C 81.723953 85.078128 82.60937 84.661461 83.520828 84.281253 C 84.427078 83.906253 85.348953 83.578128 86.291662 83.291669 C 87.229162 83.005211 88.182287 82.765628 89.145828 82.578128 C 90.10937 82.385419 91.083328 82.239586 92.057287 82.145836 C 93.036454 82.046878 94.01562 82.000003 94.999995 82.000003 C 95.98437 82.000003 96.963537 82.046878 97.942704 82.145836 C 98.916662 82.239586 99.890621 82.385419 100.854162 82.578128 C 101.817704 82.765628 102.770829 83.005211 103.708329 83.291669 C 104.651037 83.578128 105.572912 83.906253 106.479162 84.281253 C 107.390621 84.661461 108.276038 85.078128 109.140621 85.54167 C 110.010413 86.005211 110.848954 86.51042 111.666663 87.057295 C 112.484371 87.60417 113.270829 88.187503 114.031246 88.807295 C 114.791663 89.432295 115.52083 90.093753 116.213538 90.786461 C 116.906246 91.47917 117.567705 92.208336 118.192705 92.968753 C 118.812496 93.72917 119.39583 94.515628 119.942705 95.333337 C 120.48958 96.151045 120.994788 96.989587 121.45833 97.859378 C 121.921871 98.723962 122.338538 99.609378 122.718746 100.520837 C 123.093746 101.427087 123.421871 102.348962 123.70833 103.29167 C 123.994788 104.22917 124.234372 105.182295 124.421872 106.145837 C 124.61458 107.109379 124.760413 108.083337 124.854163 109.057296 C 124.953122 110.036462 124.999997 111.015629 124.999997 112.000004 Z M 124.999997 112.000004 "
     transform="matrix(0, -0.75, 0.75, 0, -12.374999, 155.624994)"
     id="path18" />
  <path
     fill="none"
     stroke-width="1"
     stroke-linecap="butt"
     stroke-linejoin="miter"
     stroke="rgb(0%, 0%, 0%)"
     stroke-opacity="1"
     stroke-miterlimit="10"
     d="M 82.999995 112.000004 C 84.598953 106.000004 86.598953 103.000004 88.999995 103.000004 C 91.401037 103.000004 93.401037 106.000004 94.999995 112.000004 C 96.197912 118.000004 98.197912 121.000004 100.999996 121.000004 C 103.401037 121.000004 105.401037 118.000004 106.999996 112.000004 "
     transform="matrix(0, -0.75, 0.75, 0, -12.374999, 155.624994)"
     id="path20" />
  <path
     fill-rule="nonzero"
     fill="rgb(0%, 0%, 0%)"
     fill-opacity="1"
     stroke-width="11.160644"
     stroke-linecap="butt"
     stroke-linejoin="miter"
     stroke="rgb(0%, 0%, 0%)"
     stroke-opacity="0.1335"
     stroke-miterlimit="4"
     d="M 51.840307 648.009822 C 51.840307 662.742463 56.199934 674.160259 64.919188 682.999843 L 76.181557 682.999843 C 104.155829 681.158263 139.032843 680.053315 181.175901 680.053315 C 259.649183 680.053315 306.151868 681.158263 319.957353 682.999843 L 330.129815 682.999843 C 334.12614 678.948367 335.942651 676.001839 335.942651 674.160259 C 335.942651 671.950363 335.216047 666.057307 334.12614 656.112774 C 330.493118 646.168242 327.5867 639.538554 325.043584 636.960342 L 303.972055 636.960342 C 289.439966 635.487078 279.267503 635.118762 274.181272 635.118762 C 254.562952 631.803918 244.027187 626.647494 241.847374 620.017806 C 241.847374 618.544542 251.656534 534.936808 270.911552 368.826289 C 290.16657 203.084086 300.339033 119.476353 301.065637 118.003089 L 374.089385 235.127579 C 422.771884 312.842256 471.454383 391.661882 520.136882 470.849823 C 568.81938 550.406081 593.523932 591.289157 594.977141 593.867369 C 597.520257 598.655477 598.973466 603.811902 598.973466 608.968326 C 598.973466 625.17423 584.441376 634.38213 555.013896 636.960342 C 543.024922 636.960342 536.848784 640.643502 536.848784 648.009822 C 536.848784 648.746454 537.575389 653.166246 539.028598 660.900883 C 540.845109 670.477099 543.024922 676.370155 544.841433 678.948367 C 547.021247 681.526579 551.380873 682.999843 557.920314 682.999843 C 559.373522 682.999843 563.369847 682.999843 569.909287 682.999843 C 576.81203 682.999843 588.074399 682.631527 604.059697 681.894895 C 620.044995 681.158263 641.479826 681.158263 668.000889 681.158263 C 714.140272 681.158263 742.841149 681.526579 754.830122 682.999843 L 762.096167 682.999843 C 766.819096 678.211735 768.998909 674.528575 768.998909 671.950363 C 768.998909 660.532567 766.092491 649.851402 759.916353 639.90687 C 758.099842 638.06529 752.287006 636.960342 742.841149 636.960342 C 734.485197 636.22371 726.492548 635.487078 718.863201 635.118762 C 711.597157 634.38213 704.694414 632.54055 698.154974 629.962338 C 691.252232 627.384126 686.166001 625.17423 682.169676 622.964334 C 678.173352 621.122754 674.177027 618.176226 670.180703 614.861382 C 665.821076 611.546538 662.551356 609.336642 660.00824 607.863378 C 657.465125 606.75843 654.558707 603.811902 652.015591 599.023793 C 649.472475 594.235685 646.92936 592.025789 645.112849 592.025789 L 451.836062 281.903712 C 331.946327 88.169492 269.821645 -11.27583 265.825321 -16.063938 C 264.00881 -17.168886 261.828996 -19.010466 258.922578 -20.852046 L 241.120769 -21.956994 L 233.854725 -21.956994 C 221.865751 -21.956994 216.052915 -19.747098 216.052915 -14.95899 C 213.873102 -10.907514 201.157524 95.535812 177.179577 305.10762 C 151.748421 516.889324 138.66954 624.069282 137.942936 625.910862 C 134.673216 633.277182 113.964989 636.960342 76.181557 636.960342 L 59.106352 636.960342 C 54.383423 640.275186 51.840307 643.958346 51.840307 648.009822 Z M 51.840307 648.009822 "
     transform="matrix(0.0107521, 0, 0, -0.0106057, 24.75511, 87.493693)"
     id="path22" />
  <path
     fill-rule="nonzero"
     fill="rgb(0%, 0%, 0%)"
     fill-opacity="1"
     stroke-width="15.78592"
     stroke-linecap="butt"
     stroke-linejoin="miter"
     stroke="rgb(0%, 0%, 0%)"
     stroke-opacity="0.0944"
     stroke-miterlimit="4"
     d="M 740.033753 434.813313 C 740.033753 358.232762 718.45144 284.256991 675.800679 212.886 C 633.149918 141.51501 578.166406 84.730791 510.850144 42.012388 C 443.533882 -0.706015 374.676026 -22.065216 303.762712 -22.065216 C 239.529638 -22.065216 184.032262 -2.789839 137.784448 35.239959 C 92.050499 72.7488 62.760217 128.491107 50.941332 200.904009 C 50.427467 206.113571 49.913603 220.700342 49.913603 244.143368 C 49.913603 311.867666 65.843405 376.466226 98.216874 437.93905 C 130.076479 499.411874 173.241105 553.591312 227.196888 600.99832 C 309.415223 669.76453 392.661287 704.147635 475.907352 704.147635 C 501.086717 704.147635 517.530384 703.626678 524.210623 703.105722 C 588.443698 693.728512 640.857886 665.075925 679.911596 617.14796 C 719.479169 569.219996 739.519889 508.268128 740.033753 434.813313 Z M 636.74697 475.968848 C 636.74697 535.357847 621.844896 581.722943 591.013021 615.064136 C 560.181145 648.405328 522.155165 665.075925 475.907352 665.075925 C 422.465434 665.075925 371.078974 644.758635 321.747973 605.165969 C 268.81992 562.968522 228.224617 504.100479 199.962064 428.040884 C 172.213376 351.981288 157.825167 281.131254 156.797438 216.011737 C 156.797438 156.101782 171.185647 108.173817 199.962064 72.7488 C 228.738481 37.844739 266.764461 19.611275 314.040004 19.090318 C 374.162162 19.090318 431.201132 45.138125 485.156914 97.754695 C 539.112697 150.89222 580.221864 222.263211 607.970552 312.909578 C 627.497407 376.466226 636.74697 430.645664 636.74697 475.968848 Z M 636.74697 475.968848 "
     transform="matrix(0.00760171, 0, 0, -0.00749823, 31.378384, 89.08455)"
     id="path24" />
  <path
     fill-rule="nonzero"
     fill="rgb(0%, 0%, 0%)"
     fill-opacity="1"
     stroke-width="15.78592"
     stroke-linecap="butt"
     stroke-linejoin="miter"
     stroke="rgb(0%, 0%, 0%)"
     stroke-opacity="0.0944"
     stroke-miterlimit="4"
     d="M 50.002758 251.95771 C 50.002758 328.538262 72.098935 402.514033 116.805155 472.843111 C 161.511375 543.693145 218.03648 599.435452 285.866607 641.111942 C 354.210598 682.267477 422.040724 703.105722 489.870851 704.147635 C 549.993008 704.147635 597.782416 686.956082 633.239073 653.093933 C 638.891583 646.321504 644.030229 640.590986 648.141146 635.902381 C 652.252063 631.213776 654.821386 628.088039 655.849115 626.004215 L 656.876844 622.878478 C 658.932302 622.878478 668.181865 631.734732 684.111668 648.926284 C 688.736449 653.093933 693.875095 657.782539 699.013741 662.9921 C 704.152387 668.201661 709.804897 673.411223 714.943543 679.14174 C 720.082189 684.351302 723.679241 687.997994 725.220835 690.081819 L 740.122908 705.189547 L 745.775419 705.189547 C 755.538846 705.189547 760.163628 702.584766 760.163628 697.896161 C 760.163628 695.29138 749.372471 649.447241 727.790158 560.884698 C 704.152387 468.154506 691.819636 421.78941 691.819636 420.747498 C 690.791907 417.621761 689.250313 415.537936 687.194855 415.01698 C 685.139397 414.496024 678.973022 413.454112 669.209594 412.933156 L 652.765927 412.933156 C 649.168875 417.100805 647.113417 420.226542 647.113417 421.78941 C 647.113417 422.831322 647.113417 424.915147 648.141146 429.082796 C 648.655011 433.250445 649.168875 439.501919 650.196604 448.879129 C 650.710469 458.256339 651.224333 469.196418 651.224333 481.178409 C 651.224333 528.585417 640.433177 569.740952 618.850864 605.165969 C 597.782416 640.590986 561.298029 658.303495 509.91157 658.824451 C 492.440174 658.824451 473.941048 656.740626 453.900329 652.052021 C 433.85961 647.363416 410.221839 639.549074 381.959286 628.088039 C 354.210598 616.627004 326.46191 597.872583 299.227086 571.824777 C 271.478398 545.77697 247.326762 515.040558 225.744449 479.094585 C 204.676001 441.064787 187.718469 396.783516 174.871854 346.250771 C 162.539104 295.197069 155.858864 254.041535 155.858864 221.742255 C 155.858864 146.203615 181.552094 91.503221 231.910824 58.162028 C 263.770429 35.239959 303.338003 23.778924 350.099681 23.778924 C 410.735703 23.778924 464.691486 46.700994 511.967028 92.024177 C 559.242571 137.347361 590.588311 186.838194 606.004249 239.975719 C 608.573572 248.831974 610.629031 253.520579 612.170624 255.083447 C 613.198353 256.125359 618.850864 257.167272 628.100427 257.167272 C 641.460906 257.167272 648.141146 254.041535 648.141146 247.790061 C 648.141146 244.664324 647.627281 241.538588 647.113417 238.933807 C 627.586562 167.562817 586.477395 106.089993 522.758185 55.036292 C 459.55284 3.461634 391.722713 -22.065216 318.753941 -22.065216 C 243.72971 -22.065216 180.0105 2.940678 128.110176 52.952467 C 76.209852 102.964256 50.002758 169.125685 50.002758 251.95771 Z M 50.002758 251.95771 "
     transform="matrix(0.00760171, 0, 0, -0.00749823, 37.178487, 89.08455)"
     id="path26" />
  <path
     fill-rule="nonzero"
     fill="rgb(0%, 0%, 0%)"
     fill-opacity="1"
     stroke-width="11.556211"
     stroke-linecap="butt"
     stroke-linejoin="miter"
     stroke="rgb(0%, 0%, 0%)"
     stroke-opacity="0.1265"
     stroke-miterlimit="4"
     d="M 229.845719 636.85397 C 212.165318 636.85397 201.256134 637.249821 197.870525 638.041522 C 194.484916 638.833224 192.980201 642.395883 192.980201 649.125348 C 192.980201 666.93864 196.741989 678.022466 203.889385 681.980976 C 205.3941 682.772677 263.325629 683.168528 378.060149 683.168528 C 492.79467 682.376827 554.487986 681.189274 563.892455 680.001721 C 601.51033 674.855659 632.733167 665.355237 657.937144 651.896305 C 683.517299 638.833224 701.197701 623.395038 712.106885 605.977597 C 722.63989 588.560156 729.787286 574.309523 733.172895 562.829846 C 736.182325 551.74602 738.439397 540.266343 738.815576 529.182517 C 738.815576 499.097846 729.411107 470.99243 709.849812 444.866269 C 690.664695 419.135958 668.470149 398.947561 642.889993 385.092779 C 617.686017 370.842145 595.49147 359.758319 575.930175 351.049599 C 556.745058 342.340878 543.954981 337.986518 537.936121 337.986518 L 545.083517 332.840456 C 589.848789 307.505996 612.043335 271.087711 612.043335 223.189748 C 612.043335 215.668581 610.162442 195.480183 607.153012 161.832854 C 603.767403 128.581376 601.886509 101.267662 601.886509 79.891712 L 601.886509 71.182992 C 601.886509 58.911613 602.262688 49.807041 603.015045 43.077576 C 603.767403 36.34811 607.153012 30.410346 613.924229 24.868433 C 620.695447 19.722371 629.347558 16.555563 639.880563 16.159712 C 658.689501 16.159712 674.11283 23.285029 686.15055 37.931513 C 697.812092 52.577998 706.840382 68.412035 712.106885 85.037774 C 715.492493 94.142345 718.125745 100.080109 720.006638 102.059364 C 721.887532 104.038619 727.154035 104.830321 735.053789 104.830321 C 748.220045 104.830321 754.991263 100.871811 754.991263 92.954793 C 754.991263 81.079265 747.091509 62.07842 730.915822 35.952259 C 705.711846 -2.04943 675.617545 -21.050275 641.0091 -21.050275 L 631.98081 -21.050275 C 591.353504 -21.050275 557.497416 -12.737406 531.164903 3.888334 C 504.456211 20.514073 489.78524 46.640234 487.151988 81.870967 C 487.151988 100.080109 492.042312 128.185525 501.82296 166.187215 C 511.979786 204.188904 516.87011 228.33581 516.87011 239.023786 C 516.87011 273.066966 502.575317 297.609723 473.985732 313.047909 C 463.828906 317.798121 455.552973 320.173226 449.157934 320.964928 C 442.386717 321.75663 418.687455 322.152481 378.060149 322.944183 L 308.843258 322.944183 L 276.868064 193.105078 C 255.049696 104.830321 244.140512 60.495016 244.140512 58.911613 C 244.140512 56.140656 244.516691 54.557252 244.89287 54.161402 C 245.645227 53.3697 247.9023 52.182147 252.040266 49.807041 C 256.178232 47.827787 261.820914 47.431936 268.96831 47.827787 C 276.491885 48.619489 287.401069 47.827787 302.072041 45.848532 L 332.918699 45.848532 C 337.056665 40.70247 338.937559 37.535663 338.937559 37.139812 C 338.937559 36.34811 338.185201 30.410346 335.928129 18.930669 C 333.294877 10.221948 329.909269 3.888334 326.147481 -0.0701758 L 311.100331 -0.0701758 C 287.02489 1.513228 243.388155 1.909079 179.813945 1.909079 C 157.24322 1.909079 136.177209 1.909079 116.992093 1.909079 C 97.806976 1.909079 82.383647 1.909079 71.098284 1.909079 C 59.812922 1.909079 52.665525 1.513228 50.032274 1.117377 C 38.746911 1.117377 33.10423 3.888334 33.10423 9.826097 C 33.10423 11.409501 33.856588 16.159712 36.11366 24.076731 C 39.499269 36.743961 42.508699 43.473426 45.894308 45.05683 C 48.527559 45.848532 53.794062 45.848532 60.941458 45.848532 L 66.960318 45.848532 C 85.016898 45.848532 104.954372 47.036085 127.148919 49.015339 C 136.177209 50.994594 142.572248 54.953103 145.957857 60.890867 C 147.838751 63.661824 171.914191 156.290941 218.184178 339.174071 C 264.077986 521.661349 287.02489 617.853125 287.02489 628.145249 C 287.02489 632.499609 267.839774 635.666417 229.845719 636.85397 Z M 630.099916 554.121125 C 630.099916 575.497076 622.952519 593.310367 609.033905 607.956852 C 595.115291 622.603336 566.149527 632.103758 522.88897 636.062268 C 521.760434 636.062268 513.86068 636.062268 499.942066 636.062268 C 486.023452 636.062268 473.233375 636.458119 461.948012 636.85397 L 440.129644 636.85397 C 408.530629 636.85397 390.850227 633.687162 385.959903 626.957696 C 385.207546 624.978442 373.922183 580.643138 352.103815 493.951784 C 329.909269 407.260431 319.000085 362.925126 319.000085 360.945872 C 319.000085 360.15417 341.946989 360.15417 387.840797 360.15417 C 440.129644 360.550021 474.73809 362.925126 492.042312 366.883636 C 534.550512 373.613102 568.030421 393.405648 592.105861 425.865424 C 602.638867 441.303611 611.667157 461.492008 618.814553 486.034766 C 626.338128 510.577523 630.099916 533.141026 630.099916 554.121125 Z M 630.099916 554.121125 "
     transform="matrix(0.010384, 0, 0, -0.00986798, 124.499995, 14.241495)"
     id="path28" />
  <path
     fill-rule="nonzero"
     fill="rgb(0%, 0%, 0%)"
     fill-opacity="1"
     stroke-width="16.345419"
     stroke-linecap="butt"
     stroke-linejoin="miter"
     stroke="rgb(0%, 0%, 0%)"
     stroke-opacity="0.0895"
     stroke-miterlimit="4"
     d="M 207.840273 74.228345 C 207.840273 57.991178 223.270519 48.472839 254.13101 46.23323 C 265.836714 46.23323 272.221643 42.313914 272.221643 35.035184 C 272.221643 34.475282 271.157488 29.996063 270.093333 22.157431 C 267.965023 12.639092 265.836714 6.480167 264.240481 4.240558 C 262.112171 1.441046 257.855552 -0.238661 250.938545 -0.238661 C 249.87439 -0.238661 245.617771 -0.238661 239.232842 -0.238661 C 232.315835 -0.238661 221.142209 0.321241 205.179886 0.881144 C 189.217563 1.441046 167.402388 2.000948 140.798516 2.000948 C 93.443624 2.000948 63.11521 1.441046 49.813274 -0.238661 L 41.832113 -0.238661 C 37.575493 4.80046 34.915106 8.159874 34.915106 10.959385 C 36.511338 28.876259 40.767958 40.634207 48.217042 46.23323 L 62.051055 46.23323 C 108.87387 47.912937 142.926826 64.710006 164.209923 96.064534 C 167.934465 99.983851 228.591293 201.886069 345.116252 401.211287 C 461.64121 600.536505 521.233883 701.318919 522.830116 704.11843 C 527.618812 711.957063 535.599974 715.876379 546.7736 715.876379 L 571.78124 715.876379 C 576.037859 710.277356 578.166169 706.917942 578.166169 705.798137 L 605.834196 382.734511 C 624.456906 167.732029 634.566377 59.110983 636.16261 56.871374 C 639.355074 49.592644 661.170249 46.23323 701.076057 46.23323 C 717.570457 46.23323 726.083696 42.873816 726.083696 36.154989 C 726.083696 34.475282 725.019541 29.996063 722.891232 22.157431 C 720.762922 12.07919 719.16669 5.920264 718.102535 4.240558 C 716.506302 2.000948 712.249683 0.881144 703.736444 -0.238661 C 702.140212 -0.238661 697.351515 -0.238661 689.902431 -0.238661 C 682.453347 -0.238661 669.683488 0.321241 651.060778 0.881144 C 632.438067 1.441046 607.962505 2.000948 578.166169 2.000948 C 515.381031 2.000948 474.411069 1.441046 455.256281 -0.238661 L 443.0185 -0.238661 C 438.761881 4.240558 437.165648 7.040069 437.165648 9.279678 C 437.165648 10.959385 437.697726 17.11831 438.761881 27.196552 C 441.422268 35.595086 443.550577 41.194109 445.14681 42.873816 L 448.871352 46.23323 L 469.090294 46.23323 C 504.739483 47.912937 526.554658 53.51196 532.939587 63.030299 L 521.233883 213.084115 L 282.863192 213.084115 L 248.810236 154.854276 C 221.674286 108.942287 207.840273 82.066977 207.840273 74.228345 Z M 515.913109 260.115908 C 515.913109 267.394638 512.188567 319.465551 504.207405 415.768747 C 496.226244 512.631844 491.437547 561.343344 489.841314 561.903247 L 463.237443 518.79077 C 452.595894 500.873896 431.312796 465.600051 399.920228 411.849431 L 309.999141 260.115908 L 413.222164 258.996103 C 481.860153 258.996103 515.913109 259.556006 515.913109 260.115908 Z M 515.913109 260.115908 "
     transform="matrix(0.00734151, 0, 0, -0.00697666, 132.724139, 15.748335)"
     id="path30" />
  <path
     fill-rule="nonzero"
     fill="rgb(0%, 0%, 0%)"
     fill-opacity="1"
     stroke-width="11.148755"
     stroke-linecap="butt"
     stroke-linejoin="miter"
     stroke="rgb(0%, 0%, 0%)"
     stroke-opacity="0.1291"
     stroke-miterlimit="4"
     d="M 229.880771 636.853524 C 212.097925 636.853524 201.210469 637.247936 197.944232 638.036762 C 194.677995 638.825588 192.863419 642.375304 192.863419 649.080324 C 192.863419 666.828905 196.492571 677.872466 204.113791 681.816595 C 205.202536 682.605421 263.26897 682.999834 377.950176 682.999834 C 492.631382 682.211008 554.689883 681.422182 564.125678 679.844531 C 601.505945 674.717163 632.716653 665.251253 658.120717 651.841214 C 683.161867 638.825588 701.307627 623.443485 711.832168 606.089317 C 722.719625 588.735148 729.615013 574.141871 732.88125 563.098309 C 736.510402 551.660335 738.324978 540.22236 739.050809 529.178799 C 739.050809 498.809005 729.252098 470.805688 710.017592 445.168849 C 690.783086 419.137597 668.282343 399.022538 642.878279 384.823674 C 617.837129 371.019222 595.336386 359.581247 576.10188 350.904163 C 556.504459 342.227079 544.165342 337.888537 537.995783 337.888537 L 544.891172 333.155582 C 589.529743 307.518743 612.030486 270.838343 612.030486 223.11438 C 612.030486 215.620535 610.21591 195.505477 606.949673 161.980379 C 603.683436 128.849695 601.86886 101.240791 601.86886 79.942494 L 601.86886 70.870997 C 601.86886 59.03861 602.231775 49.5727 602.957606 42.86768 C 603.683436 36.162661 607.312588 30.246467 613.845062 25.119099 C 620.740451 19.597319 629.450416 16.836428 639.974957 16.047602 C 658.846548 16.047602 674.088986 23.147035 686.065188 38.134725 C 698.04139 52.728003 706.751355 68.504519 711.832168 85.069862 C 715.46132 94.141359 718.001727 100.057552 720.179218 102.029617 C 721.993794 104.001681 727.074607 105.18492 735.058742 105.18492 C 748.486604 105.18492 755.019078 100.846378 755.019078 92.95812 C 755.019078 81.125733 747.034944 62.193913 731.066674 36.162661 C 705.66261 -2.095392 675.540647 -21.027211 641.063702 -21.027211 L 631.990822 -21.027211 C 591.344319 -21.027211 557.593204 -12.74454 531.100394 3.820802 C 504.244669 20.780557 489.72806 46.811809 486.824739 81.914558 C 486.824739 100.057552 491.905552 128.060869 502.067177 165.924508 C 511.865888 204.182561 516.946701 228.241748 516.946701 238.890897 C 516.946701 272.810407 502.793008 297.65842 474.122706 313.040524 C 463.96108 317.773479 455.614031 320.139956 449.081557 320.928782 C 442.186168 321.717608 418.596679 322.506434 377.950176 322.900847 L 308.996286 322.900847 L 277.059748 193.138999 C 254.92192 105.18492 244.034464 60.221848 244.034464 59.03861 C 244.034464 56.277719 244.397379 54.700068 245.123209 53.911242 C 245.486125 53.516829 248.026531 51.939177 252.018598 49.967113 C 256.010666 47.995048 261.817309 47.206222 269.075613 47.995048 C 276.333917 48.783874 287.221374 47.995048 302.100897 46.022984 L 332.94869 46.022984 C 336.940757 40.501203 339.118249 37.740312 339.118249 36.951487 C 339.118249 36.162661 338.029503 30.246467 335.852012 18.808493 C 333.311605 10.525822 330.045368 3.820802 326.053301 -0.123327 L 311.173777 -0.123327 C 286.858458 1.454325 243.308633 1.848738 180.161387 1.848738 C 157.297729 1.848738 136.248647 1.848738 117.014141 1.848738 C 97.779635 1.848738 82.174281 1.848738 70.923909 1.848738 C 59.673538 1.848738 52.778149 1.848738 49.874827 1.059912 C 38.624455 1.059912 33.180727 3.820802 33.180727 10.131409 C 33.180727 11.314647 33.906558 16.047602 36.084049 23.935861 C 39.350286 36.557074 42.616523 43.656506 45.88276 44.839745 C 48.786081 45.628571 53.503979 46.022984 61.125198 46.022984 L 66.931842 46.022984 C 85.077602 46.022984 105.037939 46.811809 127.175766 49.178287 C 136.248647 51.150351 142.78112 55.09448 146.047357 61.010674 C 147.861933 63.771565 172.177252 156.458599 217.904569 339.071776 C 263.9948 521.684954 286.858458 617.921704 286.858458 628.17644 C 286.858458 632.514982 267.986868 635.670285 229.880771 636.853524 Z M 630.176246 554.026812 C 630.176246 575.325109 622.917942 593.468103 609.127164 608.061381 C 594.973471 622.654659 566.303169 632.120569 523.11626 636.064698 C 521.664599 636.064698 514.043379 636.064698 499.889686 636.064698 C 486.098908 636.064698 473.396876 636.459111 462.146504 636.853524 L 440.008677 636.853524 C 408.797969 636.853524 390.652208 633.69822 385.93431 626.993201 C 385.20848 625.021136 373.958109 580.84689 351.820281 494.07605 C 330.045368 407.30521 319.157912 363.130964 319.157912 361.158899 C 319.157912 360.370073 342.02157 359.97566 388.111802 359.97566 C 440.008677 360.764486 474.485622 363.130964 491.905552 367.075093 C 534.729546 373.780112 568.117745 393.500758 592.070149 425.842616 C 602.59469 441.22472 611.667571 461.339778 618.925875 486.187792 C 626.184179 510.641392 630.176246 533.517341 630.176246 554.026812 Z M 630.176246 554.026812 "
     transform="matrix(0.0107635, 0, 0, -0.00990396, 203.252233, 87.014404)"
     id="path32" />
  <path
     fill-rule="nonzero"
     fill="rgb(0%, 0%, 0%)"
     fill-opacity="1"
     stroke-width="15.769102"
     stroke-linecap="butt"
     stroke-linejoin="miter"
     stroke="rgb(0%, 0%, 0%)"
     stroke-opacity="0.0912"
     stroke-miterlimit="4"
     d="M 227.9666 637.085109 C 205.380646 637.085109 193.574353 638.200846 192.034401 640.990187 C 191.521084 642.105924 191.007767 644.895266 191.007767 648.800344 C 191.007767 664.978526 194.600987 676.135892 201.787427 682.272444 C 203.327378 682.830312 208.460549 682.830312 217.18694 682.830312 C 253.119139 681.156707 295.211144 680.040971 343.976271 680.040971 C 437.913305 680.040971 491.811604 681.156707 506.184483 682.830312 L 517.990777 682.830312 C 522.097314 678.925234 524.150583 676.135892 524.150583 673.904419 C 524.150583 672.230814 523.123948 666.094262 522.097314 656.052632 C 518.504094 646.011002 515.424191 639.874451 512.857606 637.085109 L 474.872138 637.085109 C 429.186914 636.527241 401.981106 633.180031 393.768032 628.159216 C 389.148178 625.369874 384.528324 615.886112 379.90847 600.265799 C 375.288616 584.087617 353.215979 495.944421 313.177243 335.836209 C 302.397584 292.880348 291.104607 246.577276 278.784996 198.042731 C 266.978702 149.508186 258.252311 112.688877 252.092505 88.14267 L 242.852797 51.881228 C 242.852797 49.091887 245.9327 47.97615 252.092505 47.97615 C 258.252311 47.97615 277.758361 47.418282 311.123975 45.744677 L 328.06344 45.744677 C 349.109442 45.744677 366.562225 46.302545 378.881836 46.860413 C 391.714764 47.418282 408.140912 50.207623 428.16028 54.112702 C 448.179648 58.01778 464.605796 64.154332 477.952041 71.964488 C 491.298287 79.774645 506.184483 91.48988 522.097314 105.994457 C 538.010145 120.499033 551.869708 138.908688 564.189319 161.223421 C 574.455661 180.748813 584.722004 203.063546 593.961712 228.167621 C 603.20142 252.713828 608.847909 266.660536 610.901177 270.007746 C 614.494397 272.23922 620.140885 272.797088 627.840642 272.797088 L 641.186888 272.797088 C 644.780108 267.218405 646.833376 263.313326 646.833376 262.19759 C 646.833376 260.523985 640.160253 240.998593 626.814008 203.063546 C 613.467763 165.1285 599.094883 124.96198 583.182052 83.121855 C 566.755904 40.723862 558.54283 16.177655 557.002879 8.925367 C 555.462927 5.578157 554.436293 3.904552 552.896342 2.788815 C 551.869708 2.230947 546.223219 1.11521 536.983511 -0.000526628 C 527.743803 -1.116263 513.370923 -1.674132 493.864872 -1.116263 C 486.678432 -1.116263 461.525893 -1.116263 417.893937 -1.116263 C 374.775299 -1.116263 333.196611 -0.558395 294.18451 -0.000526628 L 116.063466 -0.000526628 C 60.111899 -0.000526628 31.879457 3.346683 31.879457 10.041103 C 31.879457 14.50405 32.906092 19.524865 33.932726 23.987812 C 37.525946 36.818783 40.605849 43.513203 44.199068 45.186808 C 46.765654 45.744677 51.898825 45.744677 59.085265 45.744677 L 65.245071 45.744677 C 83.21117 45.744677 103.230538 46.860413 124.789857 49.091887 C 134.542883 50.765492 140.702688 55.228438 143.782591 60.807122 C 145.83586 63.596463 169.961765 156.202606 216.160306 339.183419 C 261.845531 521.606364 284.944801 618.117586 284.944801 628.159216 C 284.944801 632.622162 265.952068 635.411504 227.9666 637.085109 Z M 227.9666 637.085109 "
     transform="matrix(0.00760982, 0, 0, -0.0070021, 211.776934, 88.499996)"
     id="path34" />
  <path
     fill-rule="nonzero"
     fill="rgb(0%, 0%, 0%)"
     fill-opacity="1"
     stroke-width="11.304001"
     stroke-linecap="butt"
     stroke-linejoin="miter"
     stroke="rgb(0%, 0%, 0%)"
     stroke-opacity="0.1312"
     stroke-miterlimit="4"
     d="M 43.055588 1.15373 C 31.755473 1.15373 26.105415 4.09748 26.105415 9.98498 C 26.105415 11.456855 26.858756 15.872481 29.118779 23.967793 C 32.508814 36.8467 35.522178 43.838107 38.912213 44.942013 C 41.172236 45.677951 46.068952 46.045919 53.979033 46.045919 L 60.005762 46.045919 C 99.932837 46.045919 125.169761 48.253732 136.093206 53.037326 C 136.846547 53.037326 137.223218 53.405295 137.976559 54.141232 C 141.366594 55.245139 145.133299 62.972483 148.900004 76.955296 C 153.04338 90.938109 169.240212 156.43655 197.867171 273.082649 C 206.153923 302.888119 212.180651 326.806089 215.947356 344.100621 C 262.654501 530.660786 286.008073 624.492821 286.008073 625.964697 C 284.501391 628.540478 284.12472 630.380322 284.12472 631.116259 C 277.344651 635.163916 253.614408 637.00376 212.933992 637.00376 L 192.970455 637.00376 C 186.943726 641.051416 185.813715 649.514698 188.827079 662.025636 C 191.840443 671.960792 193.723796 677.848293 194.853807 680.056105 C 196.360489 681.895949 200.880536 682.999855 209.167287 682.999855 L 212.933992 682.999855 C 261.147819 681.52798 309.738315 681.160012 359.082153 681.160012 C 440.442985 681.160012 483.006754 681.52798 487.15013 682.999855 L 496.943563 682.999855 C 501.84028 678.216261 504.100303 674.536574 504.100303 671.960792 C 504.100303 669.385011 502.970291 663.497511 501.086939 655.034229 C 498.826916 646.202979 496.566893 641.051416 493.930199 638.843603 C 492.046846 637.739697 484.513436 637.00376 470.953297 637.00376 C 450.236419 637.00376 429.14287 635.899853 406.919309 634.060009 C 397.502546 631.852197 391.475818 628.172509 388.085783 623.020946 C 383.189067 613.821727 366.238893 550.16313 336.858593 432.045156 C 329.701853 400.767811 322.168443 370.226403 315.011703 341.156871 C 268.304558 157.172487 244.950986 62.972483 244.950986 58.924826 C 244.950986 54.509201 248.341021 51.197482 255.12109 50.093576 C 261.524489 48.621701 278.851333 47.149826 307.101622 46.045919 L 339.118616 46.045919 C 342.885321 40.526388 345.145344 37.582638 345.145344 36.8467 C 345.145344 36.478732 344.015333 30.223263 342.13198 18.816231 C 339.495286 10.352949 336.105252 4.09748 331.961876 0.0498236 L 316.141714 0.0498236 C 291.28146 1.15373 245.704327 1.889667 179.033645 1.889667 C 154.926732 1.889667 133.079842 1.889667 113.116305 1.889667 C 93.152767 1.889667 76.955935 1.889667 64.902478 1.889667 C 52.849022 1.889667 45.692282 1.521699 43.055588 1.15373 Z M 43.055588 1.15373 "
     transform="matrix(0.0103705, 0, 0, -0.0106157, 78.006618, 22.250529)"
     id="path36" />
  <path
     fill-rule="nonzero"
     fill="rgb(0%, 0%, 0%)"
     fill-opacity="1"
     stroke-width="15.988685"
     stroke-linecap="butt"
     stroke-linejoin="miter"
     stroke="rgb(0%, 0%, 0%)"
     stroke-opacity="0.0927"
     stroke-miterlimit="4"
     d="M 229.926787 636.933961 C 211.812505 636.933961 201.157046 637.454426 197.960408 637.974891 C 194.76377 638.495356 193.165451 642.138611 193.165451 648.904656 C 193.165451 667.120931 196.894862 678.050696 203.820911 682.214416 C 205.41923 682.734881 263.491484 683.255346 378.037674 683.255346 C 492.583864 682.214416 554.918302 681.173486 563.975443 680.132556 C 601.269551 674.407441 632.703157 665.559536 657.743487 652.027446 C 683.316589 638.495356 701.430871 623.401871 712.08633 606.226526 C 722.74179 588.530716 729.667838 574.478161 732.864476 563.027931 C 736.593887 551.577701 738.192206 540.127471 739.257752 529.197706 C 739.257752 499.010736 729.135065 470.905627 709.955238 444.882377 C 690.775411 418.859127 668.398946 399.081457 642.825843 385.028902 C 617.785513 370.976347 595.409048 359.526117 576.229221 351.198677 C 556.516621 342.350772 544.262843 338.187052 537.869567 338.187052 L 544.795616 332.982402 C 589.548546 307.479617 611.925011 271.047067 611.925011 223.164287 C 611.925011 215.877777 610.326692 195.579642 607.130054 161.749417 C 603.400643 128.439657 601.802324 101.375477 601.802324 80.036412 L 601.802324 71.188507 C 601.802324 59.217812 602.335097 49.849442 602.86787 43.083397 C 603.400643 36.317352 607.130054 30.592237 614.056103 24.867122 C 620.449378 19.662472 629.506519 16.539682 640.161978 16.019217 C 658.809033 16.019217 674.259449 23.305727 685.980454 37.878747 C 698.234233 52.451767 706.7586 68.586182 712.08633 85.241062 C 715.282968 94.088967 717.946833 99.814082 720.077925 101.895942 C 722.209017 103.977802 727.003974 105.018732 734.995568 105.018732 C 748.314893 105.018732 755.240941 100.855012 755.240941 93.048037 C 755.240941 81.077342 747.249347 61.820137 731.266157 35.796887 C 705.693054 -2.197058 675.857768 -20.933798 641.227524 -20.933798 L 632.170384 -20.933798 C 591.146865 -20.933798 557.582167 -12.606358 530.943518 4.048522 C 504.304869 20.703402 489.919999 46.726652 487.256134 82.118272 C 487.256134 99.814082 492.051091 127.919192 502.173777 165.913137 C 511.763691 203.907082 517.091421 228.368937 517.091421 238.778237 C 517.091421 273.128927 502.70655 297.590782 473.93681 313.204732 C 463.814123 317.888917 455.822529 320.491242 448.89648 321.011707 C 442.503204 321.532172 418.52842 322.573102 378.037674 323.093567 L 308.777187 323.093567 L 276.810808 192.977317 C 254.967116 105.018732 243.778884 60.258742 243.778884 59.217812 C 243.778884 56.095022 244.311657 54.533627 244.84443 54.013162 C 245.909976 53.492697 248.041068 51.931302 251.770479 49.849442 C 256.032662 47.767582 261.893165 47.247117 268.819214 47.767582 C 276.278035 48.808512 287.466268 47.767582 301.851138 46.206187 L 332.751971 46.206187 C 337.014155 40.481072 339.145247 37.878747 339.145247 36.837817 C 339.145247 36.317352 338.079701 30.592237 335.948609 19.142007 C 333.284744 10.294102 330.088106 4.048522 325.825922 -0.115198 L 310.908279 -0.115198 C 286.933495 1.446197 243.246111 1.966662 179.846127 1.966662 C 157.469662 1.966662 136.158743 1.966662 116.978916 1.966662 C 97.799088 1.966662 82.348672 1.966662 71.16044 1.966662 C 59.439434 1.966662 52.513385 1.446197 49.84952 0.925732 C 38.661288 0.925732 32.800785 4.048522 32.800785 9.773637 C 32.800785 11.335032 33.866331 16.019217 35.997423 23.826192 C 39.194061 36.837817 42.923472 43.603862 46.12011 45.165257 C 48.783975 45.685722 53.578931 46.206187 61.037753 46.206187 L 66.898256 46.206187 C 85.012537 46.206187 105.25791 47.247117 127.101602 48.808512 C 136.158743 50.890372 142.552018 55.054092 145.748656 60.779207 C 147.879748 63.901997 171.854532 156.544767 218.205781 339.227982 C 264.024257 521.911196 286.933495 618.197221 286.933495 628.086056 C 286.933495 632.770241 267.753668 635.893031 229.926787 636.933961 Z M 630.039292 554.180026 C 630.039292 575.519091 623.113243 593.214901 609.261146 607.787921 C 594.876275 622.881406 566.106535 632.249776 522.951924 635.893031 C 521.886378 635.893031 513.894783 635.893031 500.042686 635.893031 C 486.190588 635.893031 473.404037 636.413496 462.215804 636.933961 L 439.839339 636.933961 C 408.405734 636.933961 390.824225 633.811171 386.029269 627.045126 C 385.496496 624.963266 373.77549 580.723741 351.931798 493.806087 C 330.088106 407.408897 318.899874 363.169372 318.899874 361.087512 C 318.899874 360.567047 341.809112 360.046582 388.160361 360.046582 C 439.839339 360.567047 474.469583 363.169372 492.051091 366.812627 C 534.672929 373.578672 568.237627 393.356342 592.212411 426.145637 C 602.86787 441.239122 611.925011 461.537257 618.851059 485.999112 C 626.309881 510.460966 630.039292 533.361426 630.039292 554.180026 Z M 630.039292 554.180026 "
     transform="matrix(0.00733192, 0, 0, -0.00750531, 82.911851, 23.842885)"
     id="path38" />
  <path
     fill-rule="nonzero"
     fill="rgb(0%, 0%, 0%)"
     fill-opacity="1"
     stroke-width="15.988685"
     stroke-linecap="butt"
     stroke-linejoin="miter"
     stroke="rgb(0%, 0%, 0%)"
     stroke-opacity="0.0927"
     stroke-miterlimit="4"
     d="M 42.059576 -0.115198 L 39.928484 -0.115198 C 30.871343 -0.115198 26.076387 3.528057 26.076387 10.814567 C 26.076387 13.416892 27.141932 19.142007 28.740251 26.948982 C 31.404116 36.317352 34.067981 41.522002 36.199073 43.083397 C 37.797392 44.124327 44.190668 45.165257 54.846127 46.206187 C 112.385609 47.767582 157.138539 65.463392 190.170463 98.252687 C 196.563739 104.498267 235.456166 146.655932 305.782199 224.205217 C 376.641005 301.234037 411.804021 340.789377 410.738476 341.830307 C 338.281351 527.115846 300.454469 621.840476 297.257832 624.963266 C 290.864556 632.249776 270.08641 636.413496 233.857847 636.933961 L 206.153653 636.933961 C 201.891469 641.097681 199.760377 643.700006 199.760377 644.740936 C 199.760377 646.302331 200.825923 652.547911 201.891469 663.998141 C 204.555334 672.846046 207.751971 679.091626 212.014155 683.255346 L 225.866253 683.255346 C 248.775491 681.693951 289.266237 681.173486 346.805718 681.173486 C 369.182183 681.173486 389.427556 681.173486 408.074611 681.173486 C 426.721665 681.173486 441.639308 681.173486 452.827541 682.214416 C 464.548546 682.734881 470.941822 682.734881 473.072914 682.214416 C 484.261146 682.214416 490.121649 678.571161 490.121649 670.764186 C 490.121649 670.243721 489.588876 666.080001 487.990557 657.752561 C 485.326692 647.863726 483.1956 642.138611 481.064508 640.056751 C 478.933416 637.974891 473.605687 636.933961 465.081319 636.933961 C 444.303173 634.852101 426.188892 629.126986 410.738476 619.758616 L 487.990557 426.145637 L 540.735082 484.958182 C 611.061115 560.425606 646.224131 602.062806 646.224131 609.869781 C 646.224131 621.840476 638.232536 630.167916 622.249347 634.852101 C 618.519936 634.852101 614.257753 635.893031 608.930023 636.933961 C 598.807336 636.933961 594.012379 640.577216 594.012379 647.863726 C 594.012379 649.425121 594.545152 654.629771 596.143471 663.998141 C 598.807336 672.846046 602.003974 679.091626 606.266158 683.255346 L 617.987163 683.255346 C 618.519936 683.255346 627.044304 683.255346 643.027493 683.255346 C 659.010683 683.255346 677.124964 682.214416 696.837564 681.173486 C 717.082937 679.612091 730.402261 679.091626 737.861083 680.132556 C 798.064429 680.132556 831.096354 681.173486 836.956857 683.255346 L 844.948451 683.255346 C 849.743408 678.571161 851.8745 674.407441 851.8745 671.805116 C 850.808954 655.150236 846.54677 643.700006 840.153495 636.933961 L 824.170305 636.933961 C 801.261067 636.413496 781.015694 633.290706 762.901413 628.086056 C 744.787132 622.881406 731.467807 617.156291 721.877894 610.910711 C 712.820753 605.185596 704.829159 598.940016 697.90311 593.214901 L 687.24765 583.846531 C 687.24765 584.887461 655.281272 550.016306 591.881288 479.753532 L 505.039292 383.987972 C 505.039292 383.467507 515.161979 356.923792 535.940125 303.836362 C 556.718271 251.269397 578.561963 197.141037 600.938428 141.971747 C 623.847666 86.802457 636.101445 58.176882 638.232536 56.095022 C 644.625812 49.849442 664.871185 46.726652 698.968656 46.206187 C 722.410667 46.206187 734.131672 43.083397 734.131672 36.837817 C 734.131672 35.796887 733.598899 31.112702 732.00058 22.785262 C 729.336715 12.375962 727.205624 6.130382 725.074532 4.048522 C 722.94344 1.966662 718.148483 0.925732 711.222434 0.925732 C 709.091342 0.925732 697.90311 0.925732 678.19051 0.925732 C 657.945137 0.925732 628.10985 1.446197 589.217423 1.966662 C 548.193903 1.966662 517.293071 1.966662 495.982152 1.966662 C 474.671233 1.966662 462.950227 1.446197 460.819135 0.925732 C 449.630903 0.925732 443.7704 4.048522 443.7704 9.773637 C 443.7704 10.814567 444.835946 15.498752 445.901492 24.867122 C 447.499811 31.633167 448.565357 36.317352 450.163676 38.919677 C 451.229222 41.522002 452.827541 43.083397 454.958633 44.124327 C 457.089724 44.644792 459.753589 45.165257 464.015773 46.206187 C 467.745184 46.726652 473.072914 47.247117 479.998962 47.247117 C 486.925011 47.247117 495.449379 49.328977 506.104838 54.013162 C 517.293071 59.217812 523.153574 62.861067 523.153574 63.901997 C 522.088028 63.901997 506.637611 102.936872 475.736779 181.006622 L 428.852757 299.152177 C 303.651107 162.790347 239.185577 91.486642 235.988939 84.200132 C 233.325074 78.475017 232.259528 74.831762 232.259528 72.229437 C 232.259528 59.217812 241.849442 50.890372 261.029269 47.247117 C 261.562042 47.247117 263.693134 47.247117 266.889772 47.247117 C 270.08641 47.247117 272.217502 46.726652 272.750275 46.206187 C 274.881367 46.206187 276.479685 46.206187 277.012458 46.206187 C 277.545231 46.206187 278.610777 45.685722 280.209096 45.165257 C 281.274642 44.124327 282.340188 43.083397 282.872961 42.042467 C 283.405734 40.481072 283.938507 38.399212 283.938507 34.755957 C 283.938507 29.030842 283.405734 23.826192 281.807415 19.142007 C 280.209096 10.294102 278.078004 5.089452 275.946912 4.048522 C 273.815821 2.487127 269.020864 1.446197 261.029269 0.925732 C 258.898177 0.925732 253.037674 0.925732 242.914988 0.925732 C 232.792301 0.925732 218.940204 1.446197 200.825923 1.966662 C 183.244415 2.487127 163.531814 2.487127 142.220895 1.966662 C 90.009144 1.966662 56.444446 1.446197 42.059576 -0.115198 Z M 42.059576 -0.115198 "
     transform="matrix(0.00733192, 0, 0, -0.00750531, 88.476779, 23.842885)"
     id="path40" />
</svg>
